<?xml version="1.0" encoding="UTF-8" standalone="no"?>
<svg
   viewBox="0 0 448 512"
   version="1.1"
   id="svg4"
   sodipodi:docname="civsoft-w.svg"
   inkscape:version="1.2.1 (9c6d41e410, 2022-07-14)"
   xml:space="preserve"
   xmlns:inkscape="http://www.inkscape.org/namespaces/inkscape"
   xmlns:sodipodi="http://sodipodi.sourceforge.net/DTD/sodipodi-0.dtd"
   xmlns="http://www.w3.org/2000/svg"
   xmlns:svg="http://www.w3.org/2000/svg"><defs
   id="defs8" /><sodipodi:namedview
   id="namedview6"
   pagecolor="#ffffff"
   bordercolor="#000000"
   borderopacity="0.25"
   inkscape:showpageshadow="2"
   inkscape:pageopacity="0.0"
   inkscape:pagecheckerboard="true"
   inkscape:deskcolor="#d1d1d1"
   showgrid="true"
   inkscape:zoom="1.1103786"
   inkscape:cx="111.67362"
   inkscape:cy="256.21891"
   inkscape:window-width="958"
   inkscape:window-height="981"
   inkscape:window-x="0"
   inkscape:window-y="0"
   inkscape:window-maximized="0"
   inkscape:current-layer="svg4" /><path
   style="fill:#ffffff;fill-opacity:1;stroke:#ffffff;stroke-width:0;stroke-linecap:butt;stroke-miterlimit:0.1;stroke-opacity:0"
   d="m 194.12674,443.55324 v -29.54639 h 86.1843 c 85.8198,0 86.2029,-0.009 90.5723,-2.12418 5.5529,-2.68814 10.5798,-10.0494 12.7941,-18.73546 2.2948,-9.00211 1.6601,-45.43799 -0.9082,-52.14036 -2.5468,-6.64599 -6.334,-11.60722 -11.4446,-14.99232 l -4.5407,-3.00768 -49.0786,-0.0327 c -59.8468,-0.0399 -67.449,-0.86678 -84.1144,-9.14902 -10.8644,-5.39928 -18.6968,-13.34753 -24.472,-24.83386 -6.629,-13.18441 -7.0554,-18.21658 -6.4394,-75.98914 0.3194,-29.95344 0.9467,-51.06794 1.5889,-53.47851 2.3708,-8.8998 12.7035,-25.69083 18.848,-30.62867 6.7951,-5.46073 19.3511,-10.27258 33.444,-12.81686 3.9356,-0.7105 36.6837,-1.07123 97.25,-1.07123 l 91.3163,-1e-5 v 27.97114 27.97114 l -79.25,0.27886 -79.25,0.27886 -4.9007,2.5 c -7.8243,3.99135 -12.3848,8.73946 -14.6233,15.22501 -1.7338,5.02344 -1.9746,8.39343 -1.9651,27.5 0.012,23.48184 0.7562,28.30232 5.4718,35.42813 1.6797,2.5382 4.5377,4.71675 9.202,7.01428 l 6.7655,3.33258 46.0249,0.62249 c 25.421,0.34383 47.5918,1.06831 49.5249,1.61837 16.8349,4.79008 23.6542,7.55403 30.8942,12.52169 5.0195,3.4441 19.1058,17.22125 19.1058,18.6865 0,0.49945 0.5818,1.50274 1.2928,2.22952 2.3357,2.38748 7.6586,17.15537 9.307,25.82143 2.1661,11.38792 3.17,64.64887 1.4834,78.70042 -3.1348,26.11667 -8.6098,39.11839 -21.6769,51.47672 -7.1404,6.75308 -14.5855,10.99824 -26.4063,15.05674 l -9.5,3.26169 -96.25,0.29861 -96.25,0.29862 z M 59.893649,359.92297 c -6.2702,-0.91868 -18.1272,-6.00392 -24.9594,-10.70459 -14.682,-10.10145 -24.876801,-26.79136 -30.6711405,-50.21153 l -2.59778,-10.5 -0.0193,-74.5 c -0.0191,-73.92246 -0.002,-74.58024 2.26353,-84.8506 2.6088,-11.82874 5.39039,-19.12801 10.4910905,-27.5299 8.2667,-13.616836 18.4861,-22.584696 32.7261,-28.718156 16.1507,-6.95641 15.348,-6.90134 100.606991,-6.90134 h 76.393 v 26.39301 c 0,23.144466 -0.1946,26.467716 -1.5817,26.999996 -0.87,0.33385 -28.2075,0.6095 -60.75,0.61257 -38.2153,0.004 -60.58479,0.37847 -63.168291,1.0586 -13.2509,3.48846 -23.4709,11.93541 -29.5892,24.45595 l -3.4108,6.97987 v 62.5 62.5 l 3.1041,6.5 c 4.1291,8.64631 11.716,16.06019 21.2665,20.78159 l 7.5217,3.71841 52.803891,0.29152 52.8038,0.29151 v 25.95849 25.95848 l -68.75,-0.12194 c -37.812491,-0.0671 -71.329891,-0.49995 -74.483091,-0.96194 z M 198.71514,315.2619 c -1.0754,-1.07548 -1.6464,0.43075 -0.8914,2.35181 0.7082,1.80207 0.7617,1.8052 1.1119,0.0649 0.2024,-1.00555 0.1032,-2.09305 -0.2205,-2.41667 z m 1.4116,-2.25505 c 0,-0.55 -2.1375,-0.95515 -4.75,-0.90032 -3.8714,0.0812 -4.2876,0.24776 -2.25,0.90032 3.6137,1.15729 7,1.15729 7,0 z"
   id="path375"
   sodipodi:nodetypes="ccssssscsssscssscccccsscsscscsssssssccccssscccccscssccscccsscccccsssssssssss"
   style="fill:#ffffff;fill-opacity:1" />
     </svg>
