<?xml version="1.0" encoding="UTF-8" standalone="no"?>
<!-- Created with Inkscape (http://www.inkscape.org/) -->

<svg
   width="38.517391mm"
   height="54.137932mm"
   viewBox="0 0 38.517391 54.137932"
   version="1.1"
   id="svg5"
   xml:space="preserve"
   inkscape:version="1.2.1 (9c6d41e410, 2022-07-14)"
   sodipodi:docname="KM.svg"
   xmlns:inkscape="http://www.inkscape.org/namespaces/inkscape"
   xmlns:sodipodi="http://sodipodi.sourceforge.net/DTD/sodipodi-0.dtd"
   xmlns:xlink="http://www.w3.org/1999/xlink"
   xmlns="http://www.w3.org/2000/svg"
   xmlns:svg="http://www.w3.org/2000/svg"><sodipodi:namedview
     id="namedview7"
     pagecolor="#ffffff"
     bordercolor="#000000"
     borderopacity="0.25"
     inkscape:showpageshadow="2"
     inkscape:pageopacity="0.0"
     inkscape:pagecheckerboard="0"
     inkscape:deskcolor="#d1d1d1"
     inkscape:document-units="mm"
     showgrid="true"
     inkscape:zoom="2.981237"
     inkscape:cx="63.564219"
     inkscape:cy="111.6986"
     inkscape:window-width="1920"
     inkscape:window-height="991"
     inkscape:window-x="-9"
     inkscape:window-y="-9"
     inkscape:window-maximized="1"
     inkscape:current-layer="layer1" /><defs
     id="defs2"><linearGradient
       id="linearGradient14678"
       inkscape:swatch="solid"><stop
         style="stop-color:#7bafd8;stop-opacity:1;"
         offset="0"
         id="stop14676" /></linearGradient><linearGradient
       inkscape:collect="always"
       id="linearGradient12633"><stop
         style="stop-color:#7bafd8;stop-opacity:1;"
         offset="0"
         id="stop12629" /><stop
         style="stop-color:#7bd886;stop-opacity:1;"
         offset="1"
         id="stop12631" /></linearGradient><rect
       x="162.23502"
       y="358.62479"
       width="133.77274"
       height="108.15668"
       id="rect542" /><rect
       x="142.31142"
       y="403.2157"
       width="112.90039"
       height="99.617996"
       id="rect536" /><linearGradient
       inkscape:collect="always"
       xlink:href="#linearGradient12633"
       id="linearGradient12635"
       x1="145.01819"
       y1="133.15291"
       x2="183.53558"
       y2="133.15291"
       gradientUnits="userSpaceOnUse"
       gradientTransform="translate(-3.0122584,-63.75947)" /></defs><g
     inkscape:label="Layer 1"
     inkscape:groupmode="layer"
     id="layer1"
     transform="translate(-142.00593,-42.32448)"><text
       xml:space="preserve"
       transform="scale(0.26458333)"
       id="text534"
       style="font-size:66.6667px;font-family:Arial;-inkscape-font-specification:Arial;text-align:center;writing-mode:vertical-lr;white-space:pre;shape-inside:url(#rect536);display:inline;fill:#9dcf94;stroke:#f6eeab;stroke-width:0" /><path
       style="fill:url(#linearGradient12635);fill-opacity:1;stroke:#f6eeab;stroke-width:0;stroke-linecap:butt;stroke-miterlimit:0.1;stroke-opacity:0"
       d="M 174.84325,81.6447 V 66.82772 l -4.2805,4.56642 c -2.35428,2.51152 -5.23903,5.58838 -6.41058,6.83745 -1.17154,1.24906 -2.19383,2.2475 -2.27176,2.21873 -0.0779,-0.0288 -2.24524,-2.09259 -4.81624,-4.58629 -2.571,-2.49369 -5.29236,-5.12191 -6.04746,-5.84046 l -1.37291,-1.30648 -0.35211,0.44764 c -0.19366,0.2462 -0.63419,0.78526 -0.97895,1.19791 l -0.62684,0.75028 v 9.39065 9.39066 h -2.83998 -2.83999 V 66.10936 42.32448 h 2.83851 2.83851 l 0.0459,9.94234 0.0459,9.94233 8.0762,-9.79212 c 4.44192,-5.38567 8.15608,-9.90101 8.25371,-10.03409 0.1396,-0.19031 0.64265,0.14043 2.35624,1.54914 l 2.17874,1.79111 -1.13155,1.36251 c -7.7185,9.29387 -14.14239,17.18985 -14.10277,17.33453 0.0272,0.0992 1.91962,1.97474 4.20545,4.16784 l 4.15606,3.98746 1.43516,-1.54133 c 0.78934,-0.84773 3.75153,-4.01706 6.58264,-7.04296 l 5.14747,-5.50162 2.79561,-0.006 2.79561,-0.006 v 18.99239 18.9924 h -2.83998 -2.83999 z"
       id="path12558" /><path
       style="fill:#ffffff;fill-opacity:1;stroke:#ffffff;stroke-width:0;stroke-linecap:butt;stroke-miterlimit:0.1;stroke-opacity:0"
       d="M 174.84325,81.6447 V 66.82772 l -4.2805,4.56642 c -2.35428,2.51152 -5.23903,5.58838 -6.41058,6.83745 -1.17154,1.24906 -2.19383,2.2475 -2.27176,2.21873 -0.0779,-0.0288 -2.24524,-2.09259 -4.81624,-4.58629 -2.571,-2.49369 -5.29236,-5.12191 -6.04746,-5.84046 l -1.37291,-1.30648 -0.35211,0.44764 c -0.19366,0.2462 -0.63419,0.78526 -0.97895,1.19791 l -0.62684,0.75028 v 9.39065 9.39066 h -2.83998 -2.83999 V 66.10936 42.32448 h 2.83851 2.83851 l 0.0459,9.94234 0.0459,9.94233 8.0762,-9.79212 c 4.44192,-5.38567 8.15608,-9.90101 8.25371,-10.03409 0.1396,-0.19031 0.64265,0.14043 2.35624,1.54914 l 2.17874,1.79111 -1.13155,1.36251 c -7.7185,9.29387 -14.14239,17.18985 -14.10277,17.33453 0.0272,0.0992 1.91962,1.97474 4.20545,4.16784 l 4.15606,3.98746 1.43516,-1.54133 c 0.78934,-0.84773 3.75153,-4.01706 6.58264,-7.04296 l 5.14747,-5.50162 2.79561,-0.006 2.79561,-0.006 v 18.99239 18.9924 h -2.83998 -2.83999 z"
       id="path12637" /></g></svg>
